<svg width="20" height="21" viewBox="0 0 20 21" fill="none" xmlns="http://www.w3.org/2000/svg">
<g clip-path="url(#clip0_2332_24076)">
<path d="M5.79766 3.04507L13.8779 3.02376M13.8779 3.02376L13.8724 6.77588M13.8779 3.02376L14.6865 3.02264M13.8637 12.3475L13.8598 14.8324C13.857 15.9041 13.4295 16.931 12.671 17.6881C11.9126 18.4453 10.8849 18.8709 9.81319 18.8718C9.28364 18.8733 8.75901 18.7702 8.2694 18.5685C7.77978 18.3668 7.33482 18.0703 6.96004 17.6962C6.58527 17.3221 6.28805 16.8776 6.08544 16.3884C5.88284 15.8991 5.77883 15.3747 5.77939 14.8451L5.79838 3.04465L4.98849 3.03689M13.8637 12.3475L13.8686 9.62438L13.8724 6.77588M13.8637 12.3475L11.3512 12.3508M13.8724 6.77588L11.4134 6.78011M13.8679 9.6248L9.82714 9.631" stroke="#FB6A68" stroke-width="1.2" stroke-linecap="round"/>
</g>
<defs>
<clipPath id="clip0_2332_24076">
<rect width="20" height="20" fill="white" transform="translate(0 0.5)"/>
</clipPath>
</defs>
</svg>
