<svg width="30" height="30" viewBox="0 0 30 30" fill="none" xmlns="http://www.w3.org/2000/svg">
<path d="M4.44351 17.8212C3.54601 13.63 3.09601 11.5338 4.22226 10.1425C5.34726 8.75 7.49101 8.75 11.7773 8.75H18.2223C22.5098 8.75 24.651 8.75 25.7773 10.1425C26.9023 11.535 26.4535 13.63 25.556 17.8212L25.0198 20.3212C24.411 23.1625 24.1073 24.5825 23.076 25.4162C22.0448 26.25 20.5923 26.25 17.6873 26.25H12.3123C9.40726 26.25 7.95476 26.25 6.92476 25.4162C5.89226 24.5825 5.58726 23.1625 4.97976 20.3212L4.44351 17.8212Z" stroke="#151515" stroke-width="1.5"/>
<path d="M10 15H20M12.5 18.75H17.5M22.5 11.25L18.75 3.75M7.5 11.25L11.25 3.75" stroke="#151515" stroke-width="1.5" stroke-linecap="round" stroke-linejoin="round"/>
</svg>
