<svg width="17" height="17" viewBox="0 0 17 17" fill="none" xmlns="http://www.w3.org/2000/svg">
<path d="M14.8267 11.3525L12.6042 11.0988C12.3428 11.0681 12.0779 11.097 11.8294 11.1834C11.5808 11.2698 11.3551 11.4114 11.1692 11.5975L9.55915 13.2075C7.07519 11.9442 5.05621 9.92525 3.7929 7.44129L5.41165 5.82254C5.7879 5.44629 5.97165 4.92129 5.9104 4.38754L5.65665 2.18254C5.60704 1.75569 5.4022 1.362 5.08111 1.07641C4.76002 0.790817 4.34512 0.63328 3.9154 0.63379H2.40165C1.4129 0.63379 0.590402 1.45629 0.651652 2.44504C1.1154 9.91754 7.09165 15.885 14.5554 16.3488C15.5442 16.41 16.3667 15.5875 16.3667 14.5988V13.085C16.3754 12.2013 15.7104 11.4575 14.8267 11.3525Z" fill="#FB6A68"/>
</svg>
