<svg width="18" height="18" viewBox="0 0 18 18" fill="none" xmlns="http://www.w3.org/2000/svg">
<path d="M16.2291 12.26L13.6891 11.97C13.3904 11.9349 13.0877 11.968 12.8036 12.0667C12.5196 12.1654 12.2616 12.3273 12.0491 12.54L10.2091 14.38C7.37025 12.9362 5.06284 10.6288 3.61906 7.79001L5.46906 5.94001C5.89906 5.51001 6.10906 4.91001 6.03906 4.30001L5.74906 1.78001C5.69237 1.29219 5.45826 0.842247 5.0913 0.515858C4.72434 0.18947 4.25017 0.00942751 3.75906 0.0100112H2.02906C0.899064 0.0100112 -0.0409359 0.950011 0.0290641 2.08001C0.559064 10.62 7.38906 17.44 15.9191 17.97C17.0491 18.04 17.9891 17.1 17.9891 15.97V14.24C17.9991 13.23 17.2391 12.38 16.2291 12.26Z" fill="#FB6A68"/>
</svg>
