<svg width="20" height="24" viewBox="0 0 20 24" fill="none" xmlns="http://www.w3.org/2000/svg">
<path d="M13.0769 5.25C12.6689 5.25 12.2776 5.40804 11.9891 5.68934C11.7005 5.97064 11.5385 6.35218 11.5385 6.75C11.5385 7.14782 11.7005 7.52936 11.9891 7.81066C12.2776 8.09196 12.6689 8.25 13.0769 8.25C13.4849 8.25 13.8763 8.09196 14.1648 7.81066C14.4533 7.52936 14.6154 7.14782 14.6154 6.75C14.6154 6.35218 14.4533 5.97064 14.1648 5.68934C13.8763 5.40804 13.4849 5.25 13.0769 5.25ZM5.38462 6.75C5.38462 6.35218 5.5467 5.97064 5.83522 5.68934C6.12374 5.40804 6.51505 5.25 6.92308 5.25C7.3311 5.25 7.72242 5.40804 8.01093 5.68934C8.29945 5.97064 8.46154 6.35218 8.46154 6.75C8.46154 7.14782 8.29945 7.52936 8.01093 7.81066C7.72242 8.09196 7.3311 8.25 6.92308 8.25C6.51505 8.25 6.12374 8.09196 5.83522 7.81066C5.5467 7.52936 5.38462 7.14782 5.38462 6.75ZM10.7692 0.75C10.7692 0.551088 10.6882 0.360322 10.5439 0.21967C10.3997 0.0790178 10.204 0 10 0C9.79599 0 9.60033 0.0790178 9.45607 0.21967C9.31181 0.360322 9.23077 0.551088 9.23077 0.75V1.5H4.61538C4.00335 1.5 3.41638 1.73705 2.9836 2.15901C2.55082 2.58097 2.30769 3.15326 2.30769 3.75V9.75C2.30769 10.3467 2.55082 10.919 2.9836 11.341C3.41638 11.7629 4.00335 12 4.61538 12H15.3846C15.9967 12 16.5836 11.7629 17.0164 11.341C17.4492 10.919 17.6923 10.3467 17.6923 9.75V3.75C17.6923 3.15326 17.4492 2.58097 17.0164 2.15901C16.5836 1.73705 15.9967 1.5 15.3846 1.5H10.7692V0.75ZM4.61538 3H15.3846C15.5886 3 15.7843 3.07902 15.9285 3.21967C16.0728 3.36032 16.1538 3.55109 16.1538 3.75V9.75C16.1538 9.94891 16.0728 10.1397 15.9285 10.2803C15.7843 10.421 15.5886 10.5 15.3846 10.5H4.61538C4.41137 10.5 4.21572 10.421 4.07146 10.2803C3.9272 10.1397 3.84615 9.94891 3.84615 9.75V3.75C3.84615 3.55109 3.9272 3.36032 4.07146 3.21967C4.21572 3.07902 4.41137 3 4.61538 3ZM10.3846 23.997C14.4092 23.9475 16.8385 23.1045 18.2646 21.837C19.6108 20.637 19.94 19.1715 19.9923 18.003H20V16.968C19.9996 16.2482 19.706 15.558 19.1839 15.0492C18.6617 14.5403 17.9536 14.2545 17.2154 14.2545H12.3077V14.25H7.69231V14.2545H2.78462C1.24615 14.2545 0 15.4695 0 16.9695V18.003H0.00769248C0.0600002 19.173 0.38923 20.6385 1.73538 21.8355C3.16154 23.1045 5.59077 23.9475 9.61539 23.997V24H10.3846V23.997ZM2.78462 15.7545H17.2154C17.5459 15.7545 17.8629 15.8825 18.0965 16.1104C18.3302 16.3382 18.4615 16.6473 18.4615 16.9695V17.625C18.4615 18.66 18.26 19.809 17.2277 20.7285C16.1692 21.669 14.0923 22.5 10 22.5C5.90769 22.5 3.83077 21.669 2.77231 20.7285C1.74154 19.809 1.53846 18.6585 1.53846 17.625V16.968C1.53887 16.646 1.67034 16.3374 1.904 16.1098C2.13765 15.8823 2.45438 15.7545 2.78462 15.7545Z" fill="#13C690"/>
</svg>
