<svg width="23" height="24" viewBox="0 0 23 24" fill="none" xmlns="http://www.w3.org/2000/svg">
<path fill-rule="evenodd" clip-rule="evenodd" d="M0.25 12C0.25 5.78663 5.28663 0.75 11.5 0.75C17.7134 0.75 22.75 5.78663 22.75 12C22.75 18.2134 17.7134 23.25 11.5 23.25C5.28663 23.25 0.25 18.2134 0.25 12ZM11.5 13.125C11.2016 13.125 10.9155 13.0065 10.7045 12.7955C10.4935 12.5845 10.375 12.2984 10.375 12V7.5C10.375 7.20163 10.4935 6.91548 10.7045 6.7045C10.9155 6.49353 11.2016 6.375 11.5 6.375C11.7984 6.375 12.0845 6.49353 12.2955 6.7045C12.5065 6.91548 12.625 7.20163 12.625 7.5V12C12.625 12.2984 12.5065 12.5845 12.2955 12.7955C12.0845 13.0065 11.7984 13.125 11.5 13.125ZM9.8125 16.5C9.8125 16.0524 9.99029 15.6232 10.3068 15.3068C10.6232 14.9903 11.0524 14.8125 11.5 14.8125H11.5113C11.9588 14.8125 12.388 14.9903 12.7045 15.3068C13.021 15.6232 13.1988 16.0524 13.1988 16.5V16.5113C13.1988 16.9588 13.021 17.388 12.7045 17.7045C12.388 18.021 11.9588 18.1987 11.5113 18.1987H11.5C11.0524 18.1987 10.6232 18.021 10.3068 17.7045C9.99029 17.388 9.8125 16.9588 9.8125 16.5113V16.5Z" fill="#FB6A68"/>
</svg>
