<?xml version="1.0" encoding="utf-8"?>
<!-- Uploaded to: SVG Repo, www.svgrepo.com, Generator: SVG Repo Mixer Tools -->
<svg width="800px" height="800px" viewBox="0 0 64 64" xmlns="http://www.w3.org/2000/svg" xmlns:xlink="http://www.w3.org/1999/xlink" aria-hidden="true" role="img" class="iconify iconify--emojione" preserveAspectRatio="xMidYMid meet">
<path d="M32 2C19.3 2 8.5 9.9 4.1 21h55.8C55.5 9.9 44.7 2 32 2z" fill="#42ade2">
</path>
<path d="M32 62c12.7 0 23.5-7.9 27.9-19H4.1C8.5 54.1 19.3 62 32 62z" fill="#83bf4f">
</path>
<path d="M62 32c0-3.1-.5-6.2-1.4-9H3.4C2.5 25.8 2 28.9 2 32s.5 6.2 1.4 9h57.2c.9-2.8 1.4-5.9 1.4-9" fill="#ffffff">
</path>
<g fill="#c94747">
<path d="M59.9 21c.1.3.3.7.4 1c.1.3.2.7.3 1">
</path>
<path d="M60.3 22c-.1-.3-.3-.7-.4-1H4.1c-.1.3-.3.7-.4 1c-.1.3-.2.7-.3 1h57.2c-.1-.3-.2-.7-.3-1">
</path>
<path d="M3.7 42c.1.3.3.7.4 1h55.8c.1-.3.3-.7.4-1c.1-.3.2-.7.3-1H3.4c.1.3.2.7.3 1">
</path>
</g>
<g fill="#ffffff">
<path d="M20.4 17.3c-2.4 0-4.3-1.9-4.3-4.3s1.9-4.3 4.3-4.3c.6 0 1.1.1 1.6.3c-.8-.6-1.9-1-3-1c-2.8 0-5 2.2-5 5s2.2 5 5 5c1.1 0 2.2-.4 3-1c-.5.2-1 .3-1.6.3">
</path>
<path d="M24.7 15.2l.4 1.1h1.1l-.9.6l.3 1.1l-.9-.7l-.9.7l.4-1.1l-.9-.6h1.1z">
</path>
<path d="M29 15.2l.3 1.1h1.2l-.9.6l.3 1.1l-.9-.7l-.9.7l.3-1.1l-.9-.6h1.1z">
</path>
<path d="M33.3 15.2l.3 1.1h1.1l-.9.6l.4 1.1l-.9-.7l-1 .7l.4-1.1l-.9-.6h1.1z">
</path>
<path d="M37.5 15.2l.4 1.1H39l-.9.6l.3 1.1l-.9-.7l-.9.7l.3-1.1l-.9-.6h1.2z">
</path>
<path d="M41.8 15.2l.3 1.1h1.2l-1 .6l.4 1.1l-.9-.7l-.9.7l.3-1.1l-.9-.6h1.1z">
</path>
<path d="M29 11.6l.3 1.1h1.2l-.9.6l.3 1.1l-.9-.7l-.9.7l.3-1.1l-.9-.6h1.1z">
</path>
<path d="M33.3 11.6l.3 1.1h1.1l-.9.6l.4 1.1l-.9-.7l-1 .7l.4-1.1l-.9-.6h1.1z">
</path>
<path d="M37.5 11.6l.4 1.1H39l-.9.6l.3 1.1l-.9-.7l-.9.7l.3-1.1l-.9-.6h1.2z">
</path>
<path d="M41.8 11.6l.3 1.1h1.2l-1 .6l.4 1.1l-.9-.7l-.9.7l.3-1.1l-.9-.6h1.1z">
</path>
<path d="M33.3 8l.3 1.1h1.1l-.9.6l.4 1.1l-.9-.7l-1 .7l.4-1.1l-.9-.6h1.1z">
</path>
<path d="M37.5 8l.4 1.1H39l-.9.6l.3 1.1l-.9-.7l-.9.7l.3-1.1l-.9-.6h1.2z">
</path>
<path d="M41.8 8l.3 1.1h1.2l-1 .6l.4 1.1l-.9-.7l-.9.7l.3-1.1l-.9-.6h1.1z">
</path>
</g>
</svg>